<svg width="129" height="24" viewBox="0 0 129 24" fill="none" xmlns="http://www.w3.org/2000/svg">
<g clip-path="url(#clip0_83854_433)">
<path d="M2.1236 21.9574C0.989608 20.2815 0.426687 18.2722 0.521358 16.2383V7.7617C0.384034 5.70593 0.911707 3.66097 2.02346 1.94043C3.12499 0.612766 4.82737 0 7.33086 0C9.83436 0 11.4366 0.612766 12.438 1.73617C13.5252 3.15904 14.06 4.9407 13.9401 6.74043V8.78298H9.03324V6.43404C9.07287 5.73932 8.97057 5.04378 8.73282 4.39149C8.60574 4.12819 8.40433 3.90969 8.15449 3.76409C7.90465 3.61849 7.61781 3.55245 7.33086 3.57447C6.62989 3.57447 6.12919 3.77872 5.92891 4.28936C5.70237 5.015 5.60073 5.77516 5.62849 6.53617V17.4638C5.5756 18.2022 5.71373 18.9417 6.02905 19.6085C6.22933 20.1192 6.73003 20.3234 7.431 20.3234C8.13198 20.3234 8.53254 20.1192 8.73282 19.6085C8.9605 18.9183 9.06232 18.1914 9.03324 17.4638V15.0128H13.9401V17.0553C14.0419 18.8844 13.5103 20.6918 12.438 22.1617C11.4366 23.3872 9.73422 24 7.33086 24C4.92751 23.8979 3.12499 23.2851 2.1236 21.9574Z" fill="#111111"/>
<path d="M19.8484 0.306274H25.5563L29.7622 23.5914H25.1558L24.3547 18.6893H21.05L20.2489 23.5914H15.5424L19.8484 0.306274ZM23.9541 15.6254L22.7524 6.53606L21.5507 15.6254H23.9541Z" fill="#111111"/>
<path d="M33.2671 4.18713H29.8623V0.306274H41.7789V4.085H38.3742V23.5914H33.2671V4.18713Z" fill="#111111"/>
<path d="M50.8916 0.306274H59.7039V2.75734H53.996V10.4169H58.6024V12.7658H53.996V21.3446H59.7039V23.6935H50.7915V0.306274H50.8916Z" fill="#111111"/>
<path d="M62.3076 0.306274H64.5107L71.0198 15.7276V0.306274H73.6234V23.5914H71.6206L65.0114 7.65947V23.5914H62.3076V0.306274Z" fill="#111111"/>
<path d="M76.6276 0.306274H85.4399V2.75734H79.7319V10.4169H84.3383V12.7658H79.7319V21.3446H85.4399V23.6935H76.6276V0.306274Z" fill="#111111"/>
<path d="M88.0435 0.306296H92.6499C94.462 0.178639 96.2628 0.682798 97.7571 1.73608C98.8586 2.65523 99.3593 4.28927 99.3593 6.43396C99.3593 9.39566 98.458 11.234 96.5554 11.8467L99.7598 23.4893H96.6555L93.6513 12.5616H91.1478V23.4893H87.9434V0.306296H88.0435ZM92.4496 10.3148C93.482 10.4016 94.511 10.1121 95.3537 9.49778C95.9545 8.98715 96.255 7.96587 96.255 6.43396C96.2827 5.67295 96.1811 4.91279 95.9545 4.18715C95.7291 3.66645 95.3421 3.23582 94.853 2.96162C94.1633 2.64108 93.4061 2.50069 92.6499 2.5531H91.248V10.2127H92.4496V10.3148Z" fill="#111111"/>
<path d="M103.365 21.8552C102.324 20.0696 101.835 18.0052 101.963 15.9318V8.17013C101.938 6.69013 102.107 5.21336 102.464 3.77864C102.799 2.70652 103.467 1.77457 104.366 1.12332C105.484 0.44833 106.774 0.128339 108.072 0.204169C110.174 0.204169 111.677 0.714807 112.578 1.83821C113.615 3.3216 114.11 5.12783 113.98 6.94459V7.76162H110.976V7.04672C110.98 6.1914 110.913 5.33724 110.775 4.49353C110.691 3.96037 110.403 3.48301 109.974 3.16587C109.411 2.78909 108.743 2.60981 108.072 2.65523C107.354 2.60831 106.643 2.82575 106.069 3.268C105.833 3.47043 105.641 3.71977 105.503 4.00074C105.365 4.28172 105.285 4.58841 105.268 4.90204C105.136 5.81505 105.069 6.73661 105.067 7.65949V16.3403C104.994 17.6629 105.198 18.9862 105.668 20.2212C106.069 21.0382 106.87 21.3446 108.072 21.3446C108.546 21.4049 109.027 21.3207 109.455 21.1026C109.883 20.8846 110.238 20.5424 110.475 20.1191C111.004 18.8276 111.243 17.4319 111.176 16.034V14.3999H108.272V12.051H114.08V23.5914H112.077L111.777 20.9361C111.514 21.826 110.968 22.6008 110.224 23.1375C109.48 23.6741 108.581 23.9417 107.671 23.8978C106.844 23.9474 106.017 23.7868 105.265 23.4303C104.514 23.0738 103.861 22.5326 103.365 21.8552Z" fill="#111111"/>
<path d="M120.489 15.4212L115.582 0.408447H118.586L122.091 11.6425L125.496 0.408447H128.5L123.593 15.4212V23.5914H120.589V15.4212H120.489Z" fill="#111111"/>
</g>
<defs>
<clipPath id="clip0_83854_433">
<rect width="128" height="24" fill="white" transform="translate(0.5)"/>
</clipPath>
</defs>
</svg>
